<?xml version="1.0" encoding="UTF-8" standalone="no"?>
<!DOCTYPE svg PUBLIC "-//W3C//DTD SVG 1.1//EN"
 "http://www.w3.org/Graphics/SVG/1.1/DTD/svg11.dtd">
<!-- Generated by graphviz version 12.2.1 (20241206.2353)
 -->
<!-- Title: G Pages: 1 -->
<svg width="222pt" height="374pt"
 viewBox="0.00 0.00 222.23 373.80" xmlns="http://www.w3.org/2000/svg" xmlns:xlink="http://www.w3.org/1999/xlink">
<g id="graph0" class="graph" transform="scale(1 1) rotate(0) translate(4 369.8)">
<title>G</title>
<polygon fill="white" stroke="none" points="-4,4 -4,-369.8 218.23,-369.8 218.23,4 -4,4"/>
<!-- A0x2a2892a0 -->
<g id="node1" class="node">
<title>A0x2a2892a0</title>
<ellipse fill="none" stroke="black" cx="101.05" cy="-343.62" rx="22.18" ry="22.18"/>
<text text-anchor="middle" x="101.05" y="-338.6" font-family="Helvetica,sans-Serif" font-size="12.00">100</text>
</g>
<!-- A0x2a2892c0 -->
<g id="node2" class="node">
<title>A0x2a2892c0</title>
<ellipse fill="none" stroke="black" cx="72.05" cy="-263.26" rx="18.05" ry="18.05"/>
<text text-anchor="middle" x="72.05" y="-258.24" font-family="Helvetica,sans-Serif" font-size="12.00">50</text>
</g>
<!-- A0x2a2892a0&#45;&gt;A0x2a2892c0 -->
<g id="edge1" class="edge">
<title>A0x2a2892a0&#45;&gt;A0x2a2892c0</title>
<path fill="none" stroke="black" d="M93.58,-322.44C90.06,-312.92 85.8,-301.42 82.01,-291.16"/>
<polygon fill="black" stroke="black" points="85.41,-290.26 78.65,-282.1 78.84,-292.69 85.41,-290.26"/>
</g>
<!-- A0x2a2892e0 -->
<g id="node8" class="node">
<title>A0x2a2892e0</title>
<ellipse fill="none" stroke="black" cx="130.05" cy="-263.26" rx="22.18" ry="22.18"/>
<text text-anchor="middle" x="130.05" y="-258.24" font-family="Helvetica,sans-Serif" font-size="12.00">200</text>
</g>
<!-- A0x2a2892a0&#45;&gt;A0x2a2892e0 -->
<g id="edge7" class="edge">
<title>A0x2a2892a0&#45;&gt;A0x2a2892e0</title>
<path fill="none" stroke="black" d="M108.52,-322.44C111.57,-314.19 115.18,-304.45 118.55,-295.33"/>
<polygon fill="black" stroke="black" points="121.79,-296.66 121.98,-286.06 115.23,-294.23 121.79,-296.66"/>
</g>
<!-- A0x2a289360 -->
<g id="node3" class="node">
<title>A0x2a289360</title>
<ellipse fill="none" stroke="black" cx="18.05" cy="-182.9" rx="18.05" ry="18.05"/>
<text text-anchor="middle" x="18.05" y="-177.88" font-family="Helvetica,sans-Serif" font-size="12.00">20</text>
</g>
<!-- A0x2a2892c0&#45;&gt;A0x2a289360 -->
<g id="edge2" class="edge">
<title>A0x2a2892c0&#45;&gt;A0x2a289360</title>
<path fill="none" stroke="black" d="M62.15,-247.89C54.43,-236.69 43.55,-220.9 34.53,-207.81"/>
<polygon fill="black" stroke="black" points="37.49,-205.94 28.93,-199.69 31.73,-209.91 37.49,-205.94"/>
</g>
<!-- A0x2a289340 -->
<g id="node5" class="node">
<title>A0x2a289340</title>
<ellipse fill="none" stroke="black" cx="72.05" cy="-182.9" rx="18.05" ry="18.05"/>
<text text-anchor="middle" x="72.05" y="-177.88" font-family="Helvetica,sans-Serif" font-size="12.00">80</text>
</g>
<!-- A0x2a2892c0&#45;&gt;A0x2a289340 -->
<g id="edge4" class="edge">
<title>A0x2a2892c0&#45;&gt;A0x2a289340</title>
<path fill="none" stroke="black" d="M72.05,-244.87C72.05,-235.43 72.05,-223.53 72.05,-212.75"/>
<polygon fill="black" stroke="black" points="75.55,-212.76 72.05,-202.76 68.55,-212.76 75.55,-212.76"/>
</g>
<!-- A0x2a2893e0 -->
<g id="node4" class="node">
<title>A0x2a2893e0</title>
<ellipse fill="none" stroke="black" cx="18.05" cy="-102.54" rx="18.05" ry="18.05"/>
<text text-anchor="middle" x="18.05" y="-97.52" font-family="Helvetica,sans-Serif" font-size="12.00">12</text>
</g>
<!-- A0x2a289360&#45;&gt;A0x2a2893e0 -->
<g id="edge3" class="edge">
<title>A0x2a289360&#45;&gt;A0x2a2893e0</title>
<path fill="none" stroke="black" d="M18.05,-164.51C18.05,-155.07 18.05,-143.17 18.05,-132.39"/>
<polygon fill="black" stroke="black" points="21.55,-132.4 18.05,-122.4 14.55,-132.4 21.55,-132.4"/>
</g>
<!-- A0x2a289380 -->
<g id="node6" class="node">
<title>A0x2a289380</title>
<ellipse fill="none" stroke="black" cx="72.05" cy="-102.54" rx="18.05" ry="18.05"/>
<text text-anchor="middle" x="72.05" y="-97.52" font-family="Helvetica,sans-Serif" font-size="12.00">60</text>
</g>
<!-- A0x2a289340&#45;&gt;A0x2a289380 -->
<g id="edge5" class="edge">
<title>A0x2a289340&#45;&gt;A0x2a289380</title>
<path fill="none" stroke="black" d="M72.05,-164.51C72.05,-155.07 72.05,-143.17 72.05,-132.39"/>
<polygon fill="black" stroke="black" points="75.55,-132.4 72.05,-122.4 68.55,-132.4 75.55,-132.4"/>
</g>
<!-- A0x2a289400 -->
<g id="node7" class="node">
<title>A0x2a289400</title>
<ellipse fill="none" stroke="black" cx="72.05" cy="-22.18" rx="18.05" ry="18.05"/>
<text text-anchor="middle" x="72.05" y="-17.16" font-family="Helvetica,sans-Serif" font-size="12.00">58</text>
</g>
<!-- A0x2a289380&#45;&gt;A0x2a289400 -->
<g id="edge6" class="edge">
<title>A0x2a289380&#45;&gt;A0x2a289400</title>
<path fill="none" stroke="black" d="M72.05,-84.15C72.05,-74.71 72.05,-62.81 72.05,-52.03"/>
<polygon fill="black" stroke="black" points="75.55,-52.04 72.05,-42.04 68.55,-52.04 75.55,-52.04"/>
</g>
<!-- A0x2a289300 -->
<g id="node9" class="node">
<title>A0x2a289300</title>
<ellipse fill="none" stroke="black" cx="130.05" cy="-182.9" rx="22.18" ry="22.18"/>
<text text-anchor="middle" x="130.05" y="-177.88" font-family="Helvetica,sans-Serif" font-size="12.00">150</text>
</g>
<!-- A0x2a2892e0&#45;&gt;A0x2a289300 -->
<g id="edge8" class="edge">
<title>A0x2a2892e0&#45;&gt;A0x2a289300</title>
<path fill="none" stroke="black" d="M130.05,-240.85C130.05,-233.48 130.05,-225.05 130.05,-216.97"/>
<polygon fill="black" stroke="black" points="133.55,-217.07 130.05,-207.07 126.55,-217.07 133.55,-217.07"/>
</g>
<!-- A0x2a289320 -->
<g id="node10" class="node">
<title>A0x2a289320</title>
<ellipse fill="none" stroke="black" cx="192.05" cy="-182.9" rx="22.18" ry="22.18"/>
<text text-anchor="middle" x="192.05" y="-177.88" font-family="Helvetica,sans-Serif" font-size="12.00">330</text>
</g>
<!-- A0x2a2892e0&#45;&gt;A0x2a289320 -->
<g id="edge9" class="edge">
<title>A0x2a2892e0&#45;&gt;A0x2a289320</title>
<path fill="none" stroke="black" d="M143.5,-245.26C151.71,-234.89 162.36,-221.42 171.59,-209.75"/>
<polygon fill="black" stroke="black" points="174.22,-212.07 177.68,-202.06 168.73,-207.73 174.22,-212.07"/>
</g>
<!-- A0x2a2893a0 -->
<g id="node11" class="node">
<title>A0x2a2893a0</title>
<ellipse fill="none" stroke="black" cx="192.05" cy="-102.54" rx="22.18" ry="22.18"/>
<text text-anchor="middle" x="192.05" y="-97.52" font-family="Helvetica,sans-Serif" font-size="12.00">333</text>
</g>
<!-- A0x2a289320&#45;&gt;A0x2a2893a0 -->
<g id="edge10" class="edge">
<title>A0x2a289320&#45;&gt;A0x2a2893a0</title>
<path fill="none" stroke="black" d="M192.05,-160.49C192.05,-153.12 192.05,-144.69 192.05,-136.61"/>
<polygon fill="black" stroke="black" points="195.55,-136.71 192.05,-126.71 188.55,-136.71 195.55,-136.71"/>
</g>
<!-- A0x2a2893c0 -->
<g id="node12" class="node">
<title>A0x2a2893c0</title>
<ellipse fill="none" stroke="black" cx="192.05" cy="-22.18" rx="22.18" ry="22.18"/>
<text text-anchor="middle" x="192.05" y="-17.16" font-family="Helvetica,sans-Serif" font-size="12.00">500</text>
</g>
<!-- A0x2a2893a0&#45;&gt;A0x2a2893c0 -->
<g id="edge11" class="edge">
<title>A0x2a2893a0&#45;&gt;A0x2a2893c0</title>
<path fill="none" stroke="black" d="M192.05,-80.13C192.05,-72.76 192.05,-64.33 192.05,-56.25"/>
<polygon fill="black" stroke="black" points="195.55,-56.35 192.05,-46.35 188.55,-56.35 195.55,-56.35"/>
</g>
</g>
</svg>
